<svg width="140" height="30" viewBox="0 0 140 30" fill="none" xmlns="http://www.w3.org/2000/svg">
<path fill-rule="evenodd" clip-rule="evenodd" d="M17.8999 28.8694V14.9674C17.8999 9.37901 13.979 7.42974 9.46691 7.42974C6.2633 7.42974 3.3298 8.46981 1.00293 10.8025L2.83166 13.9755C4.54084 12.1686 6.55112 11.2801 8.80936 11.2801C11.5657 11.2801 13.5273 12.7518 13.5273 15.1832V18.3057C12.0174 16.5309 9.72151 15.6125 6.96513 15.6125C3.66411 15.6125 0 17.6123 0 22.4545C0 27.051 3.71725 29.3883 6.96513 29.3883C9.64181 29.3883 12.0174 28.3965 13.5162 26.5781V28.874L17.8999 28.8694ZM8.71859 26.2566C6.2633 26.2566 4.38143 24.7964 4.38143 22.5004C4.38143 20.2045 6.2633 18.7351 8.71859 18.7351C10.5982 18.7351 12.4823 19.4629 13.5162 20.9024V24.0915C12.4801 25.5311 10.5982 26.2566 8.71859 26.2566ZM38.9414 28.8694V7.95781H34.5578V22.6198C33.5526 23.9974 31.6398 25.3474 29.4236 25.3474C26.9218 25.3474 25.3277 24.3234 25.3277 21.0678V7.95781H20.9441V22.753C20.9441 27.0005 23.1116 29.3814 27.4642 29.3814C28.8002 29.3704 30.1196 29.0724 31.3389 28.5061C32.5583 27.9398 33.6513 27.1176 34.5489 26.0913V28.8694H38.9414ZM50.4961 29.3883C52.5064 29.3883 53.7971 28.7776 54.5941 28.0498L53.5425 24.5668C53.206 24.964 52.4577 25.3428 51.6296 25.3428C50.3699 25.3428 49.6991 24.2683 49.6991 22.8311V11.8931H53.7971V7.95781H49.6991V2.23856H45.3154V7.95781H41.9945V11.8931H45.3154V23.9767C45.3154 27.4804 47.0689 29.3883 50.4961 29.3883ZM75.6179 28.8694V14.0582C75.6179 9.77621 73.4505 7.42974 69.1155 7.42974C65.9429 7.42974 63.3437 9.11497 62.0308 10.7681V0H57.6472V28.8694H62.0308V14.235C63.0338 12.8574 64.9466 11.4798 67.196 11.4798C69.6557 11.4637 71.2431 12.3982 71.2431 15.6952V28.8694H75.6179ZM104.056 19.3641C104.375 23.4647 107.021 26.8628 111.245 26.8628C112.378 26.8873 113.503 26.6577 114.543 26.1897C115.583 25.7217 116.513 25.0264 117.269 24.1512L117.652 23.738L119.065 25.2556L118.713 25.6206C116.625 27.8845 114.314 28.9934 111.254 28.9934C105.42 28.9934 101.705 24.2821 101.705 18.4136C101.705 12.9423 105.34 7.88204 110.871 7.88204C116.736 7.88204 119.924 12.7265 119.924 18.4136V19.355L104.056 19.3641ZM117.652 17.2197C117.431 13.335 114.798 10.0448 110.829 10.0448C106.957 10.0448 104.408 13.4888 104.072 17.2197H117.652ZM137.817 26.9179C137.021 27.7628 136.072 28.4363 135.024 28.8997C133.976 29.363 132.85 29.6071 131.711 29.6179C125.893 29.6179 122.959 24.6908 122.959 19.0886C122.959 13.4865 125.908 8.49506 131.711 8.49506C132.858 8.50453 133.991 8.75637 135.041 9.23521C136.091 9.71406 137.035 10.4098 137.817 11.2801V1.71049H140V29.1335H137.817V26.9179ZM137.817 24.0594V14.1248C136.588 12.0745 134.038 10.6533 131.711 10.6533C127.168 10.6533 125.264 14.8847 125.264 19.084C125.264 23.2834 127.177 27.4643 131.72 27.4643C134.022 27.4643 136.588 26.1258 137.817 24.0594Z" fill="white"/>
<path fill-rule="evenodd" clip-rule="evenodd" d="M95.9886 19.745C96.2054 19.745 96.4201 19.7895 96.6203 19.8759C96.8205 19.9624 97.0022 20.0891 97.1549 20.2488C97.3076 20.4085 97.4284 20.5979 97.5101 20.8062C97.5919 21.0145 97.6331 21.2375 97.6313 21.4623V21.545C98.1638 22.1817 98.5085 22.9638 98.6243 23.798C98.7401 24.6322 98.6221 25.4833 98.2845 26.2499C97.9468 27.0165 97.4037 27.6663 96.7199 28.1217C96.0361 28.5771 95.2404 28.8191 94.4277 28.8186H82.9151C82.0726 28.8192 81.249 28.5594 80.5495 28.0722C79.8501 27.5851 79.3066 26.8928 78.9884 26.0837C78.6702 25.2747 78.5918 24.3856 78.7632 23.5302C78.9346 22.6747 79.348 21.8916 79.9506 21.281L85.7069 15.3964C85.6917 15.2985 85.6858 15.1993 85.6892 15.1002C85.6919 14.7639 85.7904 14.4359 85.9725 14.1575C86.1546 13.8792 86.4121 13.663 86.7125 13.5362C87.0129 13.4093 87.3428 13.3776 87.6605 13.4448C87.9783 13.5121 88.2698 13.6754 88.4982 13.9142C88.7266 14.153 88.8818 14.4566 88.9441 14.7867C89.0064 15.1168 88.9731 15.4586 88.8484 15.7691C88.7237 16.0796 88.5131 16.3448 88.2433 16.5314C87.9734 16.718 87.6563 16.8176 87.332 16.8176C87.2251 16.8149 87.1186 16.8042 87.0132 16.7855C86.4066 17.3962 85.8021 18.0253 85.1955 18.636C84.352 19.5131 83.5218 20.3878 82.7247 21.281C82.1267 21.9142 81.583 22.6003 81.0997 23.3313C80.9201 23.6637 80.832 24.041 80.8451 24.4218C80.8463 24.9914 81.065 25.5373 81.4533 25.9401C81.8417 26.3428 82.3681 26.5696 82.9174 26.5709H94.43C94.9781 26.5661 95.5025 26.3381 95.8902 25.9361C96.2778 25.5341 96.4976 24.9903 96.5022 24.4218C96.4763 23.9721 96.3332 23.538 96.0882 23.1659H95.9908C95.5533 23.1659 95.1338 22.9857 94.8245 22.665C94.5152 22.3442 94.3414 21.9091 94.3414 21.4555C94.3414 21.0018 94.5152 20.5667 94.8245 20.246C95.1338 19.9252 95.5533 19.745 95.9908 19.745H95.9886Z" fill="url(#paint0_linear)"/>
<path fill-rule="evenodd" clip-rule="evenodd" d="M90.0133 19.9429C90.1143 19.9457 90.2149 19.9564 90.3144 19.975C90.9365 19.3643 91.5431 18.7352 92.1475 18.1245C92.9778 17.2497 93.8213 16.3727 94.6183 15.4795C95.2124 14.847 95.7511 14.1609 96.2279 13.4292C96.4131 13.0984 96.5073 12.7212 96.5002 12.3387C96.4984 11.7693 96.2796 11.2237 95.8913 10.8211C95.5031 10.4185 94.977 10.1915 94.4279 10.1896H82.9153C82.643 10.189 82.3733 10.2442 82.1216 10.352C81.8699 10.4598 81.6412 10.6181 81.4487 10.8177C81.2561 11.0174 81.1035 11.2545 80.9996 11.5156C80.8957 11.7766 80.8425 12.0563 80.843 12.3387C80.8685 12.7885 81.0117 13.2227 81.2571 13.5946H81.3523C81.679 13.5959 81.998 13.6978 82.2689 13.8872C82.5399 14.0766 82.7505 14.3452 82.8742 14.6588C82.9979 14.9724 83.0292 15.317 82.964 15.6491C82.8988 15.9811 82.7401 16.2856 82.508 16.5241C82.2758 16.7626 81.9807 16.9243 81.6599 16.9888C81.3391 17.0533 81.0071 17.0177 80.7059 16.8864C80.4046 16.7552 80.1477 16.5342 79.9676 16.2515C79.7875 15.9688 79.6922 15.637 79.694 15.2982C79.7016 15.271 79.7075 15.2434 79.7117 15.2155C79.1793 14.5788 78.8346 13.7967 78.7188 12.9625C78.603 12.1283 78.7209 11.2772 79.0586 10.5106C79.3962 9.74399 79.9393 9.09424 80.6231 8.6388C81.3069 8.18337 82.1026 7.94145 82.9153 7.9419H94.4279C95.2705 7.94127 96.0941 8.20112 96.7935 8.68826C97.493 9.17541 98.0365 9.86772 98.3547 10.6768C98.6729 11.4858 98.7513 12.3749 98.5799 13.2304C98.4085 14.0858 97.9951 14.8689 97.3924 15.4795L91.6228 21.3641C91.6638 21.5978 91.6573 21.8378 91.6038 22.0688C91.5502 22.2998 91.4508 22.5166 91.3119 22.7055C91.173 22.8944 90.9976 23.0511 90.797 23.1658C90.5964 23.2804 90.3749 23.3503 90.1467 23.3712C89.9185 23.392 89.6887 23.3633 89.4718 23.2868C89.2549 23.2103 89.0558 23.0877 88.8872 22.927C88.7186 22.7662 88.5842 22.5707 88.4926 22.353C88.4009 22.1352 88.3541 21.9001 88.355 21.6626C88.3568 21.207 88.532 20.7707 88.8426 20.4486C89.1532 20.1265 89.574 19.9447 90.0133 19.9429Z" fill="url(#paint1_linear)"/>
<defs>
<linearGradient id="paint0_linear" x1="81.2834" y1="28.6521" x2="92.4287" y2="12.0232" gradientUnits="userSpaceOnUse">
<stop stop-color="#FF9DB8"/>
<stop offset="0.4" stop-color="#FF798B"/>
<stop offset="1" stop-color="white"/>
</linearGradient>
<linearGradient id="paint1_linear" x1="149343" y1="-66912.5" x2="159235" y2="-47088.4" gradientUnits="userSpaceOnUse">
<stop stop-color="#EEC5D0"/>
<stop offset="0.4" stop-color="#C53347"/>
<stop offset="1" stop-color="#FF7689"/>
</linearGradient>
</defs>
</svg>
